<mxfile host="Electron" modified="2025-01-17T13:46:37.935Z" agent="Mozilla/5.0 (Windows NT 10.0; Win64; x64) AppleWebKit/537.36 (KHTML, like Gecko) draw.io/24.2.5 Chrome/120.0.6099.109 Electron/28.1.0 Safari/537.36" etag="YgFv4RyBeLDwe-nTwYQI" version="24.2.5" type="device">
  <diagram name="第 1 页" id="_NuPO-kT9UAcE9hn8lGj">
    <mxGraphModel dx="2074" dy="1196" grid="1" gridSize="10" guides="1" tooltips="1" connect="1" arrows="1" fold="1" page="1" pageScale="1" pageWidth="827" pageHeight="1169" math="0" shadow="0">
      <root>
        <mxCell id="0" />
        <mxCell id="1" parent="0" />
        <mxCell id="6hPog67eSu-tSO-z8mLb-1" value="5" style="rounded=0;whiteSpace=wrap;html=1;fillColor=#dae8fc;strokeColor=#6c8ebf;" parent="1" vertex="1">
          <mxGeometry x="230" y="330" width="40" height="20" as="geometry" />
        </mxCell>
        <mxCell id="6hPog67eSu-tSO-z8mLb-2" value="" style="rounded=0;whiteSpace=wrap;html=1;fillColor=#dae8fc;strokeColor=#6c8ebf;" parent="1" vertex="1">
          <mxGeometry x="270" y="330" width="40" height="20" as="geometry" />
        </mxCell>
        <mxCell id="6hPog67eSu-tSO-z8mLb-3" value="9" style="rounded=0;whiteSpace=wrap;html=1;fillColor=#d5e8d4;strokeColor=#82b366;" parent="1" vertex="1">
          <mxGeometry x="230" y="350" width="40" height="20" as="geometry" />
        </mxCell>
        <mxCell id="6hPog67eSu-tSO-z8mLb-4" value="" style="rounded=0;whiteSpace=wrap;html=1;fillColor=#d5e8d4;strokeColor=#82b366;" parent="1" vertex="1">
          <mxGeometry x="270" y="350" width="40" height="20" as="geometry" />
        </mxCell>
        <mxCell id="6hPog67eSu-tSO-z8mLb-17" value="2" style="rounded=0;whiteSpace=wrap;html=1;fillColor=#ffe6cc;strokeColor=#d79b00;" parent="1" vertex="1">
          <mxGeometry x="401" y="330" width="40" height="20" as="geometry" />
        </mxCell>
        <mxCell id="6hPog67eSu-tSO-z8mLb-18" value="" style="rounded=0;whiteSpace=wrap;html=1;fillColor=#ffe6cc;strokeColor=#d79b00;" parent="1" vertex="1">
          <mxGeometry x="441" y="330" width="40" height="20" as="geometry" />
        </mxCell>
        <mxCell id="6hPog67eSu-tSO-z8mLb-19" value="10" style="rounded=0;whiteSpace=wrap;html=1;fillColor=#fff2cc;strokeColor=#d6b656;" parent="1" vertex="1">
          <mxGeometry x="401" y="350" width="40" height="20" as="geometry" />
        </mxCell>
        <mxCell id="6hPog67eSu-tSO-z8mLb-20" value="" style="rounded=0;whiteSpace=wrap;html=1;fillColor=#fff2cc;strokeColor=#d6b656;" parent="1" vertex="1">
          <mxGeometry x="441" y="350" width="40" height="20" as="geometry" />
        </mxCell>
        <mxCell id="6hPog67eSu-tSO-z8mLb-21" value="6" style="rounded=0;whiteSpace=wrap;html=1;fillColor=#e1d5e7;strokeColor=#9673a6;" parent="1" vertex="1">
          <mxGeometry x="401" y="370" width="40" height="20" as="geometry" />
        </mxCell>
        <mxCell id="6hPog67eSu-tSO-z8mLb-22" value="" style="rounded=0;whiteSpace=wrap;html=1;fillColor=#e1d5e7;strokeColor=#9673a6;" parent="1" vertex="1">
          <mxGeometry x="441" y="370" width="40" height="20" as="geometry" />
        </mxCell>
        <mxCell id="6hPog67eSu-tSO-z8mLb-23" value="左表 t0" style="text;html=1;align=center;verticalAlign=middle;resizable=0;points=[];autosize=1;strokeColor=none;fillColor=none;" parent="1" vertex="1">
          <mxGeometry x="240" y="265" width="60" height="30" as="geometry" />
        </mxCell>
        <mxCell id="6hPog67eSu-tSO-z8mLb-24" value="右表 t1" style="text;html=1;align=center;verticalAlign=middle;resizable=0;points=[];autosize=1;strokeColor=none;fillColor=none;" parent="1" vertex="1">
          <mxGeometry x="410" y="265" width="60" height="30" as="geometry" />
        </mxCell>
        <mxCell id="6hPog67eSu-tSO-z8mLb-60" value="0" style="text;html=1;align=center;verticalAlign=middle;resizable=0;points=[];autosize=1;strokeColor=none;fillColor=none;" parent="1" vertex="1">
          <mxGeometry x="195" y="326" width="30" height="30" as="geometry" />
        </mxCell>
        <mxCell id="6hPog67eSu-tSO-z8mLb-61" value="1" style="text;html=1;align=center;verticalAlign=middle;resizable=0;points=[];autosize=1;strokeColor=none;fillColor=none;" parent="1" vertex="1">
          <mxGeometry x="195" y="347" width="30" height="30" as="geometry" />
        </mxCell>
        <mxCell id="6hPog67eSu-tSO-z8mLb-62" value="0" style="text;html=1;align=center;verticalAlign=middle;resizable=0;points=[];autosize=1;strokeColor=none;fillColor=none;" parent="1" vertex="1">
          <mxGeometry x="366" y="326" width="30" height="30" as="geometry" />
        </mxCell>
        <mxCell id="6hPog67eSu-tSO-z8mLb-63" value="1" style="text;html=1;align=center;verticalAlign=middle;resizable=0;points=[];autosize=1;strokeColor=none;fillColor=none;" parent="1" vertex="1">
          <mxGeometry x="366" y="347" width="30" height="30" as="geometry" />
        </mxCell>
        <mxCell id="6hPog67eSu-tSO-z8mLb-64" value="2" style="text;html=1;align=center;verticalAlign=middle;resizable=0;points=[];autosize=1;strokeColor=none;fillColor=none;" parent="1" vertex="1">
          <mxGeometry x="367" y="368" width="30" height="30" as="geometry" />
        </mxCell>
        <mxCell id="6hPog67eSu-tSO-z8mLb-65" value="a 列" style="text;html=1;align=center;verticalAlign=middle;resizable=0;points=[];autosize=1;strokeColor=none;fillColor=none;" parent="1" vertex="1">
          <mxGeometry x="225" y="298" width="50" height="30" as="geometry" />
        </mxCell>
        <mxCell id="6hPog67eSu-tSO-z8mLb-66" value="b 列" style="text;html=1;align=center;verticalAlign=middle;resizable=0;points=[];autosize=1;strokeColor=none;fillColor=none;" parent="1" vertex="1">
          <mxGeometry x="265" y="298" width="50" height="30" as="geometry" />
        </mxCell>
        <mxCell id="6hPog67eSu-tSO-z8mLb-67" value="c 列" style="text;html=1;align=center;verticalAlign=middle;resizable=0;points=[];autosize=1;strokeColor=none;fillColor=none;" parent="1" vertex="1">
          <mxGeometry x="401" y="298" width="40" height="30" as="geometry" />
        </mxCell>
        <mxCell id="6hPog67eSu-tSO-z8mLb-68" value="d 列" style="text;html=1;align=center;verticalAlign=middle;resizable=0;points=[];autosize=1;strokeColor=none;fillColor=none;" parent="1" vertex="1">
          <mxGeometry x="436" y="298" width="50" height="30" as="geometry" />
        </mxCell>
        <mxCell id="6hPog67eSu-tSO-z8mLb-69" value="On 条件：a = c and b &amp;gt; d" style="text;html=1;align=center;verticalAlign=middle;resizable=0;points=[];autosize=1;strokeColor=none;fillColor=none;" parent="1" vertex="1">
          <mxGeometry x="267" y="232" width="160" height="30" as="geometry" />
        </mxCell>
        <mxCell id="6hPog67eSu-tSO-z8mLb-70" value="1" style="rounded=0;whiteSpace=wrap;html=1;fillColor=#f5f5f5;strokeColor=#666666;fontColor=#333333;" parent="1" vertex="1">
          <mxGeometry x="230" y="370" width="40" height="20" as="geometry" />
        </mxCell>
        <mxCell id="6hPog67eSu-tSO-z8mLb-71" value="" style="rounded=0;whiteSpace=wrap;html=1;fillColor=#f5f5f5;strokeColor=#666666;fontColor=#333333;" parent="1" vertex="1">
          <mxGeometry x="270" y="370" width="40" height="20" as="geometry" />
        </mxCell>
        <mxCell id="6hPog67eSu-tSO-z8mLb-72" value="2" style="text;html=1;align=center;verticalAlign=middle;resizable=0;points=[];autosize=1;strokeColor=none;fillColor=none;" parent="1" vertex="1">
          <mxGeometry x="195" y="365" width="30" height="30" as="geometry" />
        </mxCell>
      </root>
    </mxGraphModel>
  </diagram>
</mxfile>
